/* XPM */
static char *_5703_815df65091b82a33837e264dcae34394272b113e189d8bfa7cf1f2ac94d20bb2[] = {
/* columns rows colors chars-per-pixel */
"128 128 73 1 ",
"  c #211E1F",
". c #211F20",
"X c #2C1F22",
"o c #272021",
"O c #2C2022",
"+ c #342124",
"@ c #3A2124",
"# c #432226",
"$ c #492227",
"% c #4C2328",
"& c #54232A",
"* c #5A242A",
"= c #61242C",
"- c #6B252E",
"; c #72262F",
": c #7B2631",
"> c #315C4B",
", c #356C57",
"< c #3B6A56",
"1 c #356E59",
"2 c #3C6D59",
"3 c #36705A",
"4 c #5D5F53",
"5 c #7E4A49",
"6 c #635D53",
"7 c #6B5B52",
"8 c #765751",
"9 c #7B5551",
"0 c #725952",
"q c #466655",
"w c #4C6455",
"e c #416856",
"r c #546254",
"t c #596054",
"y c #842732",
"u c #8B2834",
"i c #932935",
"p c #982936",
"a c #A22937",
"s c #A52A39",
"d c #AC2A3A",
"f c #B32B3B",
"g c #BC2C3D",
"h c #C52D3E",
"j c #CA2D3F",
"k c #CE2D40",
"l c #D42E41",
"z c #DF2F43",
"x c #C33E4A",
"c c #CB3C49",
"v c #DD3346",
"b c #DB3748",
"n c #D43948",
"m c #D83848",
"M c #E22F44",
"N c #E82F45",
"B c #E33447",
"V c #EF3046",
"C c #814949",
"Z c #8F4F4F",
"A c #954D4E",
"S c #9E4B4D",
"D c #89514F",
"F c #964F50",
"G c #994F50",
"H c #825350",
"J c #8F5251",
"K c #A4454B",
"L c #AB464C",
"P c #A4484D",
"I c #B2444C",
"U c #BB414B",
"Y c None",
/* pixels */
"VVVVVVVVVVVVVVVVVVVVVVVVVVVVVVVVVVVVVVVVVVVVVVVVVVVVVVVVVVVVVVVVVVVVVVVVVVVVVVVVVVVVVVVVVVVVVVVVVVVVVVVVVVVVVVVVVVVVVVVVVVVVVVVV",
"VVVVVVVVVVVVVVVVVVVVVVVVVVVVVVVVVVVVVVVVVVVVVVVVVVVVVVVVVVVVVVVVVVVVVVVVVVVVVVVVVVVVVVVVVVVVVVVVVVVVVVVVVVVVVVVVVVVVVVVVVVVVVVVV",
"VVVVVVVVVVVVVVVVVVVVVVVVVVVVVVVVVVVVVVVVVVVVVVVVVVVVVVVVVVVVVVVVVVVVVVVVVVVVVVVVVVVVVVVVVVVVVVVVVVVVVVVVVVVVVVVVVVVVVVVVVVVVVVVV",
"VVVVVVVVVVVVVVVVVVVVVVVVVVVVVVVVVVVVVVVVVVVVVVVVVVVVVVVVVVVVVVVVVVVVVVVVVVVVVVVVVVVVVVVVVVVVVVVVVVVVVVVVVVVVVVVVVVVVVVVVVVVVVVVV",
"VVVVVVVVVVVVVVVVVVVVVVVVVVVVVVVVVVVVVVVVVVVVVVVVVVVVVVVVVVVVVVVVVVVVVVVVVVVVVVVVVVVVVVVVVVVVVVVVVVVVVVVVVVVVVVVVVVVVVVVVVVVVVVVV",
"VVVVVVVVVVVVVVVVVVVVVVVVVVVVVVVVVVVVVVVVVVVVVVVVVVVVVVVVVVVVVVVVVVVVVVVVVVVVVVVVVVVVVVVVVVVVVVVVVVVVVVVVVVVVVVVVVVVVVVVVVVVVVVVV",
"VVVVVVVVVVVVVVVVVVVVVVVVVVVVVVVVVVVVVVVVVVVVVVVVVVVVVVVVVVVVVVVVVVVVVVVVVVVVVVVVVVVVVVVVVVVVVVVVVVVVVVVVVVVVVVVVVVVVVVVVVVVVVVVV",
"VVVVVVVVVVVVVVVVVVVVVVVVVVVVVVVVVVVVVVVVVVVVVVVVVVVVVVVVVVVVVVVVVVVVVVVVVVVVVVVVVVVVVVVVVVVVVVVVVVVVVVVVVVVVVVVVVVVVVVVVVVVVVVVV",
"VVVVVVVVVVVVVVVVVVVVVVVVVVVVVVVVVVVVVVVVVVVVVVVVVVVVVVVVVVVVVVVVVVVVVVVVVVVVVVVVVVVVVVVVVVVVVVVVVVVVVVVVVVVVVVVVVVVVVVVVVVVVVVVV",
"VVVVVVVVVVVVVVVVVVVVVVVVVVVVVVVVVVVVVVVVVVVVVVVVVVVVVVVVVVVVVVVVVVVVVVVVVVVVVVVVVVVVVVVVVVVVVVVVVVVVVVVVVVVVVVVVVVVVVVVVVVVVVVVV",
"VVVVVVVVVVVVVVVVVVVVVVVVVVVVVVVVVVVVVVVVVVVVVVVVVVVVVVVVVVVVVVVVVVVVVVVVVVVVVVVVVVVVVVVVVVVVVVVVVVVVVVVVVVVVVVVVVVVVVVVVVVVVVVVV",
"VVVVVVVVVVVVVVVVVVVVVVVVVVVVVVVVVVVVVVVVVVVVVVVVVVVVVVVVVVVVVVVVVVVVVVVVVVVVVVVVVVVVVVVVVVVVVVVVVVVVVVVVVVVVVVVVVVVVVVVVVVVVVVVV",
"VVVVVVVVVVVVVVVVVVVVVVVVVVVVVVVVVVVVVVVVVVVVVVVVVVVVVVVVVVVVVVVVVVVVVVVVVVVVVVVVVVVVVVVVVVVVVVVVVVVVVVVVVVVVVVVVVVVVVVVVVVVVVVVV",
"VVVVVVVVVVVVVVVVVVVVVVVVVVVVVVVVVVVVVVVVVVVVVVVVVVVVVVVVVVVVVVVVKsVVVVVVVVVVVVVVVVVVVVVVVVVVVVVVVVVVVVVVVVVVVVVVVVVVVVVVVVVVVVVV",
"VVVVVVVVVVVVVVVVVVVVVVVVVVVVVVVVVVVVVVVVVVVVVVVVVVVVVVVVVVVVVVcw> #hVVVVVVVVVVVVVVVVVVVVVVVVVVVVVVVVVVVVVVVVVVVVVVVVVVVVVVVVVVVV",
"VVVVVVVVVVVVVVVVVVVVVVVVVVVVVVVVVVVVVVVVVVVVVVVVVVVVVVVVVVVVV7<3>   *MVVVVVVVVVVVVVVVVVVVVVVVVVVVVVVVVVVVVVVVVVVVVVVVVVVVVVVVVVV",
"VVVVVVVVVVVVVVVVVVVVVVVVVVVVVVVVVVVVVVVVVVVVVVVVVVVVVVVVVVVJ<,,1> ....;NVVVVVVVVVVVVVVVVVVVVVVVVVVVVVVVVVVVVVVVVVVVVVVVVVVVVVVVV",
"VVVVVVVVVVVVVVVVVVVVVVVVVVVVVVVVVVVVVVVVVVVVVVVVVVVVVVVVVUe,,,,3> .... XpVVVVVVVVVVVVVVVVVVVVVVVVVVVVVVVVVVVVVVVVVVVVVVVVVVVVVVV",
"VVVVVVVVVVVVVVVVVVVVVVVVVVVVVVVVVVVVVVVVVVVVVVVVVVVVVVVbt,,,,,,3>  ......+gVVVVVVVVVVVVVVVVVVVVVVVVVVVVVVVVVVVVVVVVVVVVVVVVVVVVV",
"VVVVVVVVVVVVVVVVVVVVVVVVVVVVVVVVVVVVVVVVVVVVVVVVVVVVVB9,,,,,,,,3> .........$lVVVVVVVVVVVVVVVVVVVVVVVVVVVVVVVVVVVVVVVVVVVVVVVVVVV",
"VVVVVVVVVVVVVVVVVVVVVVVVVVVVVVVVVVVVVVVVVVVVVVVVVVVVS<,,,,,,,,,3> .......... -MVVVVVVVVVVVVVVVVVVVVVVVVVVVVVVVVVVVVVVVVVVVVVVVVV",
"VVVVVVVVVVVVVVVVVVVVVVVVVVVVVVVVVVVVVVVVVVVVVVVVVVxw,,,,,,,,,,,3> .......... .XyBVVVVVVVVVVVVVVVVVVVVVVVVVVVVVVVVVVVVVVVVVVVVVVV",
"VVVVVVVVVVVVVVVVVVVVVVVVVVVVVVVVVVVVVVVVVVVVVVVVb7,,,,,,,,,,,,,rl ..........  ..+dVVVVVVVVVVVVVVVVVVVVVVVVVVVVVVVVVVVVVVVVVVVVVV",
"VVVVVVVVVVVVVVVVVVVVVVVVVVVVVVVVVVVVVVVVVVVVVVVJ,,,,,,,,,,,,,,UVM ................@kVVVVVVVVVVVVVVVVVVVVVVVVVVVVVVVVVVVVVVVVVVVV",
"VVVVVVVVVVVVVVVVVVVVVVVVVVVVVVVVVVVVVVVVVVVVVI<,,,,,,,,,,,,,FVVVM...................&lVVVVVVVVVVVVVVVVVVVVVVVVVVVVVVVVVVVVVVVVVV",
"VVVVVVVVVVVVVVVVVVVVVVVVVVVVVVVVVVVVVVVVVVVnr,,,,,,,,,,,,,tBVVVVz................... X:BVVVVVVVVVVVVVVVVVVVVVVVVVVVVVVVVVVVVVVVV",
"VVVVVVVVVVVVVVVVVVVVVVVVVVVVVVVVVVVVVVVVVB0,,,,,,,,,,,,,<nVVVccVM......................XpVVVVVVVVVVVVVVVVVVVVVVVVVVVVVVVVVVVVVVV",
"VVVVVVVVVVVVVVVVVVVVVVVVVVVVVVVVVVVVVVVVS<,,,,,,,,,,,,,YVVVB7,FVz....................... @gVVVVVVVVVVVVVVVVVVVVVVVVVVVVVVVVVVVVV",
"VVVVVVVVVVVVVVVVVVVVVVVVVVVVVVVVVVVVVNxq,,,,,,,,,,,,,HVVVVG,,,SVz .........................%lVVVVVVVVVVVVVVVVVVVVVVVVVVVVVVVVVVV",
"VVVVVVVVVVVVVVVVVVVVVVVVVVVVVVVVVVVVb4,,,,,,,,,,,,,,BVVVY,,,,<SVM............Y...............-MBVVVVVVVVVVVVVVVVVVVVVVVVVVVVVVVV",
"VVVVVVVVVVVVVVVVVVVVVVVVVVVVVVVVVVBH<,,,,,,,,,,,,,FVVNB0,,,,,,GVz............VVd..............XuVVVVVVVVVVVVVVVVVVVVVVVVVVVVVVVV",
"VVVVVVVVVVVVVVVVVVVVVVVVVVVVVVVVVLe,,,,,,,,,,,,<PVVVVF<,,,,,,,GVz ...........NVVNy....... ....  @fVVVVVVVVVVVVVVVVVVVVVVVVVVVVVV",
"VVVVVVVVVVVVVVVVVVVVVVVVVVVVVVVcr,,,,,,,,,,,,,8BVVVH<,,,,,,,,,GVv............VVVVVB&..  ........  #jVNVVVVVVVVVVVVVVVVVVVVVVVVVV",
"VVVVVVVVVVVVVVVVVVVVVVVVVVVVVB7,,,,,,,,,,,,<rnVVVb,,,,,,,,,,,,FVB............VVVVVVVk+  ......... ..*MVVVVVVVVVVVVVVVVVVVVVVVVVV",
"VVVVVVVVVVVVVVVVVVVVVVVVVVVVF,,,,,,,,,,,,,,YVVVBH,,,,,,,,,,,,,FVj ...........VVVVVVVVVd ............ X:NNVVVVVVVVVVVVVVVVVVVVVVV",
"VVVVVVVVVVVVVVVVVVVVVVVVVVUe,,,,,,,,,,,,,6BVVVLe,,,,,,,,,,,,,eBVMO...........VVVVVVVVVVVy........... . XaVVVVVVVVVVVVVVVVVVVVVVV",
"VVVVVVVVVVVVVVVVVVVVVVVVbt,,,,,,,,,,,,<<bVVVY,,,,,,,,,,,,,,,UNVVMo o.........VVVVVVVVVVVVB* ........  ...+gBVVVVVVVVVVVVVVVVVVVV",
"VVVVVVVVVVVVVVVVVVVVVVB9,,,,,,,,,,,,,,YVVVBq,,,,,,,,,,,,,,JVVVVVjO. .........VVVVVVVVVVVVVVj@.......  ....o;VVVVVVVVVVVVVVVVVVVV",
"VVVVVVVVVVVVVVVVVVVVVU,,,,,,,,,,,,,,ANVVB8,,,,,,,,,,,,,,4BVVVVVVv............VVVVVVVVVVsVVVVVf............o&VVVVVVVVVVVVVVVVVVVV",
"VVVVVVVVVVVVVVVVVVVVVS,,,,,,,,,,,,7BVVVY,,,,,,,,,,,,,,enVVVVVVVVM............VVVVVVVVVV..dVVVVVu...........*VVVVVVVVVVVVVVVVVVVV",
"VVVVVVVVVVVVVVVVVVVVVP,,,,,,,,,,wnVVVnr,,,,,,,,,,,,,,LVVVVVVVVVVj ...........VVVVVVVVVV ..ofVVVVB=.........*VVVVVVVVVVVVVVVVVVVV",
"VVVVVVVVVVVVVVVVVVVVVP,,,,,,,,,,VVVB8,,,,,,,,,,,,,,HBVVVVVVVVVVVMO...........VVVVVVVVVB ..  OfVVNVl#.......*VVVVVVVVVVVVVVVVVVVV",
"VVVVVVVVVVVVVVVVVVVVVP,,,,,,,rBVVVP<,,,,,,,,,,,,<rBVVVVVVVVVVVVVM............VVVVVVVVVV ......+hVVVN&......&VVVVVVVVVVVVVVVVVVVV",
"VVVVVVVVVVVVVVVVVVVVVP,,,,,,,cVVY,,,,,,,,,,,,,,,cVVVVVVVVVVVVVVVM............VVVVVVVVVV ........@MVV-.....o*VVVVVVVVVVVVVVVVVVVV",
"VVVVVVVVVVVVVVVVVVVVVP,,,,,,,xVb,,,,,,,,,,,,,<SNVVVNBPVVVVVVVVVVj........... VVVVVVVVVB..........iVV- .....&VVVVVVVVVVVVVVVVVVVV",
"VVVVVVVVVVVVVVVVVVVVVP,,,,,,,xVb,,,,,,,,,,,<0BVVVVVJ,wVVVVVVVVVVV........... VVVVVVVVVV......... pVV-.....o*VVVVVVVVVVVVVVVVVVVV",
"VVVVVVVVVVVVVVVVVVVVVP,,,,,,,UVb,,,,,,,,,,wbVVVVNI,,,wVVVVVVVVVVz..........  VVVVVVVVVB .........pVV-......*VVVVVVVVVVVVVVVVVVVV",
"VVVVVVVVVVVVVVVVVVVVVP,,,,,,,UVb,,,,,,,,,xVVVVVn<,,,,wVVVVVVVVVVz..........  VVVVVVVVVV .........pVV-......&VVVVVVVVVVVVVVVVVVVV",
"VVVVVVVVVVVVVVVVVVVVVL<,,,,,,UVb,,,,,,,,BVVNVBr,,,,,,wVVVVVVVVVVz............VVVVVVVVVB  ........pVV-......*VVVVVVVVVVVVVVVVVVVV",
"VVVVVVVVVVVVVVVVVVVVVI,,,,,,,UVb,,,,,,,,BVVVH,,,,,,,,wVVVVVVVVVVzo...........VVVVVVVVVV   .......pVV-......*VVVVVVVVVVVVVVVVVVVV",
"VVVVVVVVVVVVVVVVVVVVVP,,,,,,,IVb,,,,,,,,VVVw,,,,,,,,,rVVVVVVVVVVj............VVVVVVVVVV .........pVV-......*VVVVVVVVVVVVVVVVVVVV",
"VVVVVVVVVVVVVVVVVVVVVP,,,,,,,IVb,,,,,,,,BVV,,,,,,,,,,wVVVVVVVVVVV............VVVVVVVVVB .........pVV-......*VVVVVVVVVVVVVVVVVVVV",
"VVVVVVVVVVVVVVVVVVVVVP,,,,,,,INb,,,,,,,,BVV,,,,,,,,,,wVVVVVVVVVVzo...........VVVVVVVVVB .........pVV-......*VVVVVVVVVVVVVVVVVVVV",
"VVVVVVVVVVVVVVVVVVVVVP,,,,,,,LVb,,,,,,,,VVV<,,,,,,,,,wVVVVVVVVVVj ...........VVVVVVVVVV .........pVV-......*VVVVVVVVVVVVVVVVVVVV",
"VVVVVVVVVVVVVVVVVVVVVP,,,,,,,LVb,,,,,,,,BVV,,,,,,,,,,wVVVVVVVVVVV  ..........VVVVVVVVVV .........pVV-......*VVVVVVVVVVVVVVVVVVVV",
"VVVVVVVVVVVVVVVVVVVVVP,,,,,,,PVb,,,,,,,,BVV,,,,,,,,,,wVVVVVVVVVVB ...........VVVVVVVVVB .........pVV-......*VVVVVVVVVVVVVVVVVVVV",
"VVVVVVVVVVVVVVVVVVVVVP,,,,,,,SNb,,,,,,,,BVV<,,,,,,,,,wVVVVVVVVVVj............VVVVVVVVVV .........pVV-......*VVVVVVVVVVVVVVVVVVVV",
"VVVVVVVVVVVVVVVVVVVVVP,,,,,,,SVVcxccccccVVVUFPSSPSSSGxVVVVVVVVVVV............VVVVVVVVVV .........pVV-......*VVVVVVVVVVVVVVVVVVVV",
"VVVVVVVVVVVVVVVVVVVVVP,,,,,,,AVVVVVVVVVVVVVVVVVVVVNVVVVVVVVVVVVVB ...........VVVVVVVVVV .........pVV-......*VVVVVVVVVVVVVVVVVVVV",
"VVVVVVVVVVVVVVVVVVVVVP,,,,,,,FVVVVVVVVVVVVVVVVVVVVVVVVVVVVVVVVVVz ...........VVVVVVVVVB .........pVV-......*VVVVVVVVVVVVVVVVVVVV",
"VVVVVVVVVVVVVVVVVVVVVL,,,,,,,ZVVVVVVVVVVVVVVVVVVVVVVVVVVVVVVVVVVz............VVVVVVVVVV..........pVV-......*VVVVVVVVVVVVVVVVVVVV",
"VVVVVVVVVVVVVVVVVVVVVP,,,,,,,DVVVVVVVVVVVVVVVVVVVVVVVVVVVVVVVVVVz............VVVVVVVVVV .........pVV-... o.*VVVVVVVVVVVVVVVVVVVV",
"VVVVVVVVVVVVVVVVVVVVVP,,,,,,,HVVVVVVVVVVVVVVVVVVVVVVVVVVVVVVVVVVz............VVVVV%dVVV .........pVV-...   =VVVVVVVVVVVVVVVVVVVV",
"VVVVVVVVVVVVVVVVVVVVVP,,,,,,,HVVVVVVVVVVVVVVVVVVVVVVVVVVVVVVVVVVz............VVVVg  BVB..........pVV-...   -VVVVVVVVVVVVVVVVVVVV",
"VVVVVVVVVVVVVVVVVVVVVP,,,,,,,9VVVVVVVVVVVVVVVVVVVVVVVVVVVVVVVVVVz............VVVV  .&VV..........iVV-......*VVVVVVVVVVVVVVVVVVVV",
"VVVVVVVVVVVVVVVVVVVVVP,,,,,,,9VVVVVVVVVVVVVVVVVVVVVVVVVVVVVVVVVVz............VVV=.  .dV.........oiVV-o.....*VVVVVVVVVVVVVVVVVVVV",
"VVVVVVVVVVVVVVVVVVVVVP,,,,,,,0VVVVVVVVVVVVVVVVVVVVVVVVVVVVVVVVVVz........... VVh......Y..........iVV-......*VVVVVVVVVVVVVVVVVVVV",
"VVVVVVVVVVVVVVVVVVVVVP,,,,,,,0VVVVVVVVVVVVVVVVVVVVVVVVVVVVVVVVVVB ..........*VVO......o .........iVV-......*VVVVVVVVVVVVVVVVVVVV",
"VVVVVVVVVVVVVVVVVVVVVP,,,,,,,0VVVVVVVVVVVVVcLIIIIIIILcVVH88999DVM ..........*Vu.................opVV-......*VVVVVVVVVVVVVVVVVVVV",
"VVVVVVVVVVVVVVVVVVVVVP,,,,,,,7VVVVVVVVVVVVV,,,,,,,,,,wVV,,,,,,,VM ... ......-j...................iVV-......*VVVVVVVVVVVVVVVVVVVV",
"VVVVVVVVVVVVVVVVVVVVVP,,,,,,,7VVVVVVVVVVVVV,,,,,,,,,,wVB,,,,,,3VM  ..............................iVV-......*VVVVVVVVVVVVVVVVVVVV",
"VVVVVVVVVVVVVVVVVVVVVP,,,,,,,6VVVVVVVVVVVVV,,,,,,,,,,rVV,,,,,,,VM ..............................opVV-......*VVVVVVVVVVVVVVVVVVVV",
"VVVVVVVVVVVVVVVVVVVVVP,,,,,,,6VVVVVVVVVVVVV,,,,,,,,,,wVV,,,,,,,VB ...............................iVV-......&VVVVVVVVVVVVVVVVVVVV",
"VVVVVVVVVVVVVVVVVVVVVP,,,,,,,4VVVVVVVVVVVVV,,,,,,,,,,wVB,,,,,,3VM................................iVV-.....o*VVVVVVVVVVVVVVVVVVVV",
"VVVVVVVVVVVVVVVVVVVVVP,,,,,,,tVVVVVVVVVVVVV,,,,,,,,,,wVV,,,,,,3VM ..............................opVV-......&VVVVVVVVVVVVVVVVVVVV",
"VVVVVVVVVVVVVVVVVVVVVP,,,,,,,tVVVVVB6mVVVVVw,,,,,,,,,rVB,,,,,,,VM ...............................pVV-.... o*VVVVVVVVVVVVVVVVVVVV",
"VVVVVVVVVVVVVVVVVVVVVP,,,,,,,rVVVVV<,,6BVVVV9,,,,,,,,wVV,,,,,,3VM ...............................iVV-o.....&VVVVVVVVVVVVVVVVVVVV",
"VVVVVVVVVVVVVVVVVVVVVP,,,,,,,rVVVV4,,,,,7BVVVB0,,,,,,wVV,,,,,,,VM ..............................opVV-.....o*VVVVVVVVVVVVVVVVVVVV",
"VVVVVVVVVVVVVVVVVVVVVP,,,,,,,wVVVD,,,,,,,,HBVVVB6,,,,wVV,,,,,,,VB ...............................pVV-......*VVVVVVVVVVVVVVVVVVVV",
"VVVVVVVVVVVVVVVVVVVVVP,,,,,,,wVVL,,,,,,,,,,,DBVVVbr,,rVB,,,,,,3VM ...............................iVV-......&VVVVVVVVVVVVVVVVVVVV",
"VVVVVVVVVVVVVVVVVVVVVP,,,,,,,wBx,,,,,,,,,,,,,,SBVVVY,wVV,,,,,,3VM  ...............o.............oiVV-..... *VVVVVVVVVVVVVVVVVVVV",
"VVVVVVVVVVVVVVVVVVVVVP,,,,,,,wVI,,,,,,,,,,,,,,,<LVVVVBVB,,,,,,,VM   .............. o..........   jVV-.... o*VVVVVVVVVVVVVVVVVVVV",
"VVVVVVVVVVVVVVVVVVVVVP,,,,,,,wVVVD,,,,,,,,,,,,,,,,YVVVVV,,,,,,3VM   ............... ...........yVVVV-..... *VVVVVVVVVVVVVVVVVVVV",
"VVVVVVVVVVVVVVVVVVVVVP,,,,,,,,nVVVb7,,,,,,,,,,,,,,,,xVVV,,,,,,,VM   ..............Bj.........&BNVVVlo..... *VVVVVVVVVVVVVVVVVVVV",
"VVVVVVVVVVVVVVVVVVVVVP,,,,,,,,,8BVVVY,,,,,,,,,,,,,,,,<nV,,,,,,,VB .............. ;VVs......+jVVVVB&........*VVVVVVVVVVVVVVVVVVVV",
"VVVVVVVVVVVVVVVVVVVVVP,,,,,,,,,,<PVVVVP<,,,,,,,,,,,,,,,,,,,,,,3VB .............. NVVV:...ofVVVVVyo.........*VVVVVVVVVVVVVVVVVVVV",
"VVVVVVVVVVVVVVVVVVVVVP,,,,,,,,,,,,,YVVVB9,,,,,,,,,,,,,,,,,,,,,,VjO..............uVVVVV#.iVVVVVf.........  .&VVVVVVVVVVVVVVVVVVVV",
"VVVVVVVVVVVVVVVVVVVVVI,,,,,,,,,,,,,,wbVVVbt,,,,,,,,,,,,,,,,,,,,VB .............oVVVVVNNBVVVVj@.........   OfVVVVVVVVVVVVVVVVVVVV",
"VVVVVVVVVVVVVVVVVVVVVVB0,,,,,,,,,,,,,,9BVVVY,,,,,,,,,,,,,,,,,,1VM   ...........sVVVVVVVVVVV*............o;BVVVVVVVVVVVVVVVVVVVVV",
"VVVVVVVVVVVVVVVVVVVVVVVVn4,,,,,,,,,,,,,,PVVVVP,,,,,,,,,,,,,,,,1VM o ..........OVVVVVVVVVVu............ &VVVVVVVVVVVVVVVVVVVVVVVV",
"VVVVVVVVVVVVVVVVVVVVVVVVVVxw,,,,,,,,,,,,,,YVVVB8,,,,,,,,,,,,,,1VB  ...........gVVVVVVVVf.............+gVVVVVVVVVVVVVVVVVVVVVVVVV",
"VVVVVVVVVVVVVVVVVVVVVVVVVVVVP<,,,,,,,,,,,,,wBVVVbq,,,,,,,,,,,,1VM ...........#VVVVVVVj@............opVVVVVVVVVVVVVVVVVVVVVVVVVVV",
"VVVVVVVVVVVVVVVVVVVVVVVVVVVVVBD<,,,,,,,,,,,,,HBVVVc4,,,,,,,,,,1VM ........   jVVVVVB* ............;VVVVVVVVVVVVVVVVVVVVVVVVVVVVV",
"VVVVVVVVVVVVVVVVVVVVVVVVVVVVVVVB7,,,,,,,,,,,,,,IVVVVL<,,,,,,,,1VM ........  uVVVVVu.  ..........%lVVVVVVVVVVVVVVVVVVVVVVVVVVVVVV",
"VVVVVVVVVVVVVVVVVVVVVVVVVVVVVVVVVnr,,,,,,,,,,,,,,nVVVVF,,,,,,,1VM  .......&BVVVVf... .........+gVVVVVVVVVVVVVVVVVVVVVVVVVVVVVVVV",
"VVVVVVVVVVVVVVVVVVVVVVVVVVVVVVVVVVVUw,,,,,,,,,,,,,9NVVVb,,,,,,1VV ......OhVVVVj#............OiVVVVVVVVVVVVVVVVVVVVVVVVVVVVVVVVVV",
"VVVVVVVVVVVVVVVVVVVVVVVVVVVVVVVVVVVVVL<<,,,,,,,,,,,<SVVVVc<,,,1VV ..  oaVVVVB*..........   :VVVVVVVVVVVVVVVVVVVVVVVVVVVVVVVVVVVV",
"VVVVVVVVVVVVVVVVVVVVVVVVVVVVVVVVVVVVVVND,,,,,,,,,,,,,wxVVVVL,,1VV .. ;BVVVVu ..........  *jVVVVVVVVVVVVVVVVVVVVVVVVVVVVVVVVVVVVV",
"VVVVVVVVVVVVVVVVVVVVVVVVVVVVVVVVVVVVVVVVb6,,,,,,,,,,,,,4bVVVN81VV .#zVVVVf..  ........ +gVVVVVVVVVVVVVVVVVVVVVVVVVVVVVVVVVVVVVVV",
"VVVVVVVVVVVVVVVVVVVVVVVVVVVVVVVVVVVVVVVVVVcr,,,,,,,,,,,,,8NVVVBVVogVVVVl+............opNVVVVVVVVVVVVVVVVVVVVVVVVVVVVVVVVVVVVVVVV",
"VVVVVVVVVVVVVVVVVVVVVVVVVVVVVVVVVVVVVVVVVVVVIe,,,,,,,,,,,,,LVVVVVVVVVB= ............-MVVVVVVVVVVVVVVVVVVVVVVVVVVVVVVVVVVVVVVVVVV",
"VVVVVVVVVVVVVVVVVVVVVVVVVVVVVVVVVVVVVVVVVVVVVVF<,,,,,,,,,,,,<xVVVVVVy.  ..........&jVVVVVVVVVVVVVVVVVVVVVVVVVVVVVVVVVVVVVVVVVVVV",
"VVVVVVVVVVVVVVVVVVVVVVVVVVVVVVVVVVVVVVVVVVVVVVVB0,,,,,,,,,,,,,6BVNf.............+fVVVVVVVVVVVVVVVVVVVVVVVVVVVVVVVVVVVVVVVVVVVVVV",
"VVVVVVVVVVVVVVVVVVVVVVVVVVVVVVVVVVVVVVVVVVVVVVVVVm4,,,,,,,,,,,,3C#............ouVVVVVVVVVVVVVVVVVVVVVVVVVVVVVVVVVVVVVVVVVVVVVVVV",
"VVVVVVVVVVVVVVVVVVVVVVVVVVVVVVVVVVVVVVVVVVVVVVVVVVVxw,,,,,,,,,,3>   ....   o.=BVVVVVVVVVVVVVVVVVVVVVVVVVVVVVVVVVVVVVVVVVVVVVVVVV",
"VVVVVVVVVVVVVVVVVVVVVVVVVVVVVVVVVVVVVVVVVVVVVVVVVVVVVLe,,,,,,,,3>   ....  .#kVVVVVVVVVVVVVVVVVVVVVVVVVVVVVVVVVVVVVVVVVVVVVVVVVVV",
"VVVVVVVVVVVVVVVVVVVVVVVVVVVVVVVVVVVVVVVVVVVVVVVVVVVVVVNZ,,,,,,,3> X .....+fVVVVVVVVVVVVVVVVVVVVVVVVVVVVVVVVVVVVVVVVVVVVVVVVVVVVV",
"VVVVVVVVVVVVVVVVVVVVVVVVVVVVVVVVVVVVVVVVVVVVVVVVVVVVVVVVB0,,,,,3>   ...ouVVVVVVVVVVVVVVVVVVVVVVVVVVVVVVVVVVVVVVVVVVVVVVVVVVVVVVV",
"VVVVVVVVVVVVVVVVVVVVVVVVVVVVVVVVVVVVVVVVVVVVVVVVVVVVVVVVVVn4,,,1>.....*BVVVVVVVVVVVVVVVVVVVVVVVVVVVVVVVVVVVVVVVVVVVVVVVVVVVVVVVV",
"VVVVVVVVVVVVVVVVVVVVVVVVVVVVVVVVVVVVVVVVVVVVVVVVVVVVVVVVVVVVUq,1>...#kVVVVVVVVVVVVVVVVVVVVVVVVVVVVVVVVVVVVVVVVVVVVVVVVVVVVVVVVVV",
"VVVVVVVVVVVVVVVVVVVVVVVVVVVVVVVVVVVVVVVVVVVVVVVVVVVVVVVVVVVVVVS2>.+dVVVVVVVVVVVVVVVVVVVVVVVVVVVVVVVVVVVVVVVVVVVVVVVVVVVVVVVVVVVV",
"VVVVVVVVVVVVVVVVVVVVVVVVVVVVVVVVVVVVVVVVVVVVVVVVVVVVVVVVVVVVVVVN5yNVVVVVVVVVVVVVVVVVVVVVVVVVVVVVVVVVVVVVVVVVVVVVVVVVVVVVVVVVVVVV",
"VVVVVVVVVVVVVVVVVVVVVVVVVVVVVVVVVVVVVVVVVVVVVVVVVVVVVVVVVVVVVVVVNVVVVVVVVVVVVVVVVVVVVVVVVVVVVVVVVVVVVVVVVVVVVVVVVVVVVVVVVVVVVVVV",
"VVVVVVVVVVVVVVVVVVVVVVVVVVVVVVVVVVVVVVVVVVVVVVVVVVVVVVVVVVVVVVVVVVVVVVVVVVVVVVVVVVVVVVVVVVVVVVVVVVVVVVVVVVVVVVVVVVVVVVVVVVVVVVVV",
"VVVVVVVVVVVVVVVVVVVVVVVVVVVVVVVVVVVVVVVVVVVVVVVVVVVVVVVVVVVVVVVVVVVVVVVVVVVVVVVVVVVVVVVVVVVVVVVVVVVVVVVVVVVVVVVVVVVVVVVVVVVVVVVV",
"VVVVVVVVVVVVVVVVVVVVVVVVVVVVVVVVVVVVVVVVVVVVVVVVVVVVVVVVVVVVVVVVVVVVVVVVVVVVVVVVVVVVVVVVVVVVVVVVVVVVVVVVVVVVVVVVVVVVVVVVVVVVVVVV",
"VVVVVVVVVVVVVVVVVVVVVVVVVVVVVVVVVVVVVVVVVVVVVVVVVVVVVVVVVVVVVVVVVVVVVVVVVVVVVVVVVVVVVVVVVVVVVVVVVVVVVVVVVVVVVVVVVVVVVVVVVVVVVVVV",
"VVVVVVVVVVVVVVVVVVVVVVVVVVVVVVVVVVVVVVVVVVVVVVVVVVVVVVVVVVVVVVVVVVVVVVVVVVVVVVVVVVVVVVVVVVVVVVVVVVVVVVVVVVVVVVVVVVVVVVVVVVVVVVVV",
"VVVVVVVVVVVVVVVVVVVVVVVVVVVVVVVVVVVVVVVVVVVVVVVVVVVVVVVVVVVVVVVVVVVVVVVVVVVVVVVVVVVVVVVVVVVVVVVVVVVVVVVVVVVVVVVVVVVVVVVVVVVVVVVV",
"VVVVVVVVVVVVVVVVVVVVVVVVVVVVVVVVVVVVVVVVVVVVVVVVVVVVVVVVVVVVVVVVVVVVVVVVVVVVVVVVVVVVVVVVVVVVVVVVVVVVVVVVVVVVVVVVVVVVVVVVVVVVVVVV",
"VVVVVVVVVVVVVVVVVVVVVVVVVVVVVVVVVVVVVVVVVVVVVVVVVVVVVVVVVVVVVVVVVVVVVVVVVVVVVVVVVVVVVVVVVVVVVVVVVVVVVVVVVVVVVVVVVVVVVVVVVVVVVVVV",
"VVVVVVVVVVVVVVVVVVVVVVVVVVVVVVVVVVVVVVVVVVVVVVVVVVVVVVVVVVVVVVVVVVVVVVVVVVVVVVVVVVVVVVVVVVVVVVVVVVVVVVVVVVVVVVVVVVVVVVVVVVVVVVVV",
"VVVVVVVVVVVVVVVVVVVVVVVVVVVVVVVVVVVVVVVVVVVVVVVVVVVVVVVVVVVVVVVVVVVVVVVVVVVVVVVVVVVVVVVVVVVVVVVVVVVVVVVVVVVVVVVVVVVVVVVVVVVVVVVV",
"VVVVVVVVVVVVVVVVVVVVVVVVVVVVVVVVVVVVVVVVVVVVVVVVVVVVVVVVVVVVVVVVVVVVVVVVVVVVVVVVVVVVVVVVVVVVVVVVVVVVVVVVVVVVVVVVVVVVVVVVVVVVVVVV",
"VVVVVVVVVVVVVVVVVVVVVVVVVVVVVVVVVVVVVVVVVVVVVVVVVVVVVVVVVVVVVVVVVVVVVVVVVVVVVVVVVVVVVVVVVVVVVVVVVVVVVVVVVVVVVVVVVVVVVVVVVVVVVVVV",
"VVVVVVVVVVVVVVVVVVVVVVVVVVVVVVVVVVVVVVVVVVVVVVVVVVVVVVVVVVVVVVVVVVVVVVVVVVVVVVVVVVVVVVVVVVVVVVVVVVVVVVVVVVVVVVVVVVVVVVVVVVVVVVVV",
"VVVVVVVVVVVVVVVVVVVVVVVVVVVVVVVVVVVVVVVVVVVVVVVVVVVVVVVVVVVVVVVVVVVVVVVVVVVVVVVVVVVVVVVVVVVVVVVVVVVVVVVVVVVVVVVVVVVVVVVVVVVVVVVV",
"VVVVVVVVVVVVVVVVVVVVVVVVVVVVVVVVVVVVVVVVVVVVVVVVVVVVVVVVVVVVVVVVVVVVVVVVVVVVVVVVVVVVVVVVVVVVVVVVVVVVVVVVVVVVVVVVVVVVVVVVVVVVVVVV"
};
