/* XPM */
static char *_22e8ac561124cff9862f670a2d042af[] = {
/* columns rows colors chars-per-pixel */
"16 16 23 1 ",
"  c #201B1D",
". c #211E1F",
"X c #211E20",
"o c #211F20",
"O c #212021",
"+ c #222122",
"@ c #222323",
"# c #222424",
"$ c #232524",
"% c #232625",
"& c #232827",
"* c #242927",
"= c #336451",
"- c #346854",
"; c #346A56",
": c #356A56",
"> c #356B56",
", c #356B57",
"< c #356C57",
"1 c #356D57",
"2 c #356D58",
"3 c #36715B",
"4 c None",
/* pixels */
"4444444444444444",
"4444444444444444",
"44444442&.444444",
"44444<<-@oo44444",
"444<<<2=Oo4oo444",
"44<<<<44 o4ooo44",
"44<<<<34 o4ooo44",
"44<<4444 o4ooo44",
"44<<4444Oooooo44",
"44<<4-22$ooooo44",
"44<<22<-$.oooo44",
"4444<22<#.4oo444",
"444442<-$.o44444",
"44444442*4444444",
"4444444444444444",
"4444444444444444"
};
