/* XPM */
static char *_986_1f1127108fe144ab507848e2baa9a2dbd810021ecbb7f07ef17ed4244bb9795e[] = {
/* columns rows colors chars-per-pixel */
"32 32 104 2 ",
"   c #201C1E",
".  c #201D1F",
"X  c #211D1F",
"o  c #211E1F",
"O  c #211F20",
"+  c #261F21",
"@  c #222122",
"#  c #222222",
"$  c #2C2022",
"%  c #2D2022",
"&  c #232826",
"*  c #242827",
"=  c #302023",
"-  c #332023",
";  c #3C2125",
":  c #26312D",
">  c #27342F",
",  c #27352F",
"<  c #411F24",
"1  c #412226",
"2  c #5A242A",
"3  c #5D242B",
"4  c #4F3334",
"5  c #65232B",
"6  c #63242C",
"7  c #66242C",
"8  c #66242D",
"9  c #66252D",
"0  c #69242D",
"q  c #6A252D",
"w  c #6F252E",
"e  c #692B32",
"r  c #336451",
"t  c #336653",
"y  c #356955",
"u  c #356C57",
"i  c #386B57",
"p  c #3C6A56",
"a  c #356D58",
"s  c #356E58",
"d  c #366F59",
"f  c #3C6D58",
"g  c #5C5F53",
"h  c #675C52",
"j  c #6F5952",
"k  c #4A6555",
"l  c #486655",
"z  c #4D6455",
"x  c #4F6455",
"c  c #516354",
"v  c #822732",
"b  c #972936",
"n  c #B12B3B",
"m  c #BC2C3D",
"M  c #BD2C3D",
"N  c #C62D3E",
"B  c #BD3140",
"V  c #CD2D40",
"C  c #CF2D40",
"Z  c #D22E41",
"A  c #D42E41",
"S  c #D72E41",
"D  c #DC2E42",
"F  c #C13F4A",
"G  c #C53D4A",
"H  c #C73D4A",
"J  c #C93C49",
"K  c #CB3C49",
"L  c #CA3D4A",
"P  c #DF3547",
"I  c #D13A49",
"U  c #D53848",
"Y  c #E62F44",
"T  c #E82F45",
"R  c #E92F45",
"E  c #E53347",
"W  c #E73347",
"Q  c #E03547",
"!  c #E33447",
"~  c #E93045",
"^  c #EA3045",
"/  c #EB3146",
"(  c #E83247",
")  c #EA3246",
"_  c #EC3045",
"`  c #ED3046",
"'  c #EC3146",
"]  c #EE3046",
"[  c #EF3046",
"{  c #954D4E",
"}  c #9E4C4F",
"|  c #845350",
" . c #865250",
".. c #A8474C",
"X. c #AA464C",
"o. c #AE454C",
"O. c #AC464C",
"+. c #A24A4E",
"@. c #A6484D",
"#. c #B4434B",
"$. c #B5434B",
"%. c #B0444C",
"&. c #B2444C",
"*. c None",
/* pixels */
"[ [ [ [ [ [ [ [ [ [ [ [ [ [ [ [ [ [ [ [ [ [ [ [ [ [ [ [ [ [ [ [ ",
"[ [ [ [ [ [ [ [ [ [ [ [ [ [ [ [ [ [ [ [ [ [ [ [ [ [ [ [ [ [ [ [ ",
"[ [ [ [ [ [ [ [ [ [ [ [ [ [ [ [ [ [ [ [ [ [ [ [ [ [ [ [ [ [ [ [ ",
"[ [ [ [ [ [ [ [ [ [ [ [ [ [ [ W B ] [ [ [ [ [ [ [ [ [ [ [ [ [ [ ",
"[ [ [ [ [ [ [ [ [ [ [ [ [ ] X.f > < Z [ [ [ [ [ [ [ [ [ [ [ [ [ ",
"[ [ [ [ [ [ [ [ [ [ [ [ J z u s :   O 2 D [ [ [ [ [ [ [ [ [ [ [ ",
"[ [ [ [ [ [ [ [ [ [ P g u u s *.# o O O O w R [ [ [ [ [ [ [ [ [ ",
"[ [ [ [ [ [ [ [ / | u u u *.s r @ o O O O O + b ` [ [ [ [ [ [ [ ",
"[ [ [ [ [ [ ] %.p u u *.u u s t # o O V ] O O O - M [ [ [ [ [ [ ",
"[ [ [ [ [ Q x u u u *.u u i } ] 0 O O N [ ] *.O O O 3 [ [ [ [ [ ",
"[ [ [ [ [ @.u u *.u u u u ( [ [ 5 O O N [ V O *.*.O - [ [ [ [ [ ",
"[ [ [ [ [ X.u *.u u u *.*.L [ [ 9 O O N [ Z O O *.O = [ [ [ [ [ ",
"[ [ [ [ [ X.u u u u *.u u +.[ [ 8 O O N [ Z O O *.O = [ [ [ [ [ ",
"[ [ [ [ [ X.u u u u *.u u +.[ [ 8 O O N [ Z O O *.O = [ [ [ [ [ ",
"[ [ [ [ [ X.u #.P U ' K G E [ [ 9 O O N [ Z O O *.O = [ [ [ [ [ ",
"[ [ [ [ [ X.u $.[ [ [ [ [ [ [ [ 7 O O C ^ n O O *.O = [ [ [ [ [ ",
"[ [ [ [ [ X.u &.[ [ [ [ [ [ [ [ 7 O O *.O O O O *.O = [ [ [ [ [ ",
"[ [ [ [ [ X.u o.[ [ ) j h F | { e X O O O O O O *.O = [ [ [ [ [ ",
"[ [ [ [ [ X.u O.[ [ W u u u a y * . O O O O O O *.O = [ [ [ [ [ ",
"[ [ [ [ [ X.u %.H k *.*.u u a y * . O O O O O O *.O = [ [ [ [ [ ",
"[ [ [ [ [ ..u u u u u u *.*.a y * . O O O O O O *.O = [ [ [ [ [ ",
"[ [ [ [ [ O.u u u *.u u u u a y * . O O C m O *.O O ; [ [ [ [ [ ",
"[ [ [ [ [ ] ..p u u *.*.u u a y * . O q [ ` O O O 6 Y [ [ [ [ [ ",
"[ [ [ [ [ [ [ /  .u u u *.u a y * . O ~ M % O 1 A [ [ [ [ [ [ [ ",
"[ [ [ [ [ [ [ [ [ ! h u u u *.*.& *.*.O O $ n [ [ [ [ [ [ [ [ [ ",
"[ [ [ [ [ [ [ [ [ [ [ I c u u *.*.  O O v _ [ [ [ [ [ [ [ [ [ [ ",
"[ [ [ [ [ [ [ [ [ [ [ [ [ H l d ,   q T [ [ [ [ [ [ [ [ [ [ [ [ ",
"[ [ [ [ [ [ [ [ [ [ [ [ [ [ ] +.4 S [ [ [ [ [ [ [ [ [ [ [ [ [ [ ",
"[ [ [ [ [ [ [ [ [ [ [ [ [ [ [ [ [ [ [ [ [ [ [ [ [ [ [ [ [ [ [ [ ",
"[ [ [ [ [ [ [ [ [ [ [ [ [ [ [ [ [ [ [ [ [ [ [ [ [ [ [ [ [ [ [ [ ",
"[ [ [ [ [ [ [ [ [ [ [ [ [ [ [ [ [ [ [ [ [ [ [ [ [ [ [ [ [ [ [ [ ",
"[ [ [ [ [ [ [ [ [ [ [ [ [ [ [ [ [ [ [ [ [ [ [ [ [ [ [ [ [ [ [ [ "
};
