/* XPM */
static char *_00b2a9bf4e44deb91f7a36ba805e4b5[] = {
/* columns rows colors chars-per-pixel */
"64 64 18 1 ",
"  c #201A1D",
". c #201B1D",
"X c #201C1E",
"o c #211D1F",
"O c #211E1F",
"+ c #211F20",
"@ c #222323",
"# c #232424",
"$ c #232524",
"% c #252D2A",
"& c #293E36",
"* c #293F37",
"= c #356C57",
"- c #356D58",
"; c #36705A",
": c #36715A",
"> c #36715B",
", c None",
/* pixels */
",,,,,,,,,,,,,,,,,,,,,,,,,,,,,,,,,,,,,,,,,,,,,,,,,,,,,,,,,,,,,,,,",
",,,,,,,,,,,,,,,,,,,,,,,,,,,,,,,,,,,,,,,,,,,,,,,,,,,,,,,,,,,,,,,,",
",,,,,,,,,,,,,,,,,,,,,,,,,,,,,,,,,,,,,,,,,,,,,,,,,,,,,,,,,,,,,,,,",
",,,,,,,,,,,,,,,,,,,,,,,,,,,,,,,,,,,,,,,,,,,,,,,,,,,,,,,,,,,,,,,,",
",,,,,,,,,,,,,,,,,,,,,,,,,,,,,,,,,,,,,,,,,,,,,,,,,,,,,,,,,,,,,,,,",
",,,,,,,,,,,,,,,,,,,,,,,,,,,,,,,,,,,,,,,,,,,,,,,,,,,,,,,,,,,,,,,,",
",,,,,,,,,,,,,,,,,,,,,,,,,,,,,,,,,,,,,,,,,,,,,,,,,,,,,,,,,,,,,,,,",
",,,,,,,,,,,,,,,,,,,,,,,,,,,,,,,;*.,,,,,,,,,,,,,,,,,,,,,,,,,,,,,,",
",,,,,,,,,,,,,,,,,,,,,,,,,,,,,=-;* .@,,,,,,,,,,,,,,,,,,,,,,,,,,,,",
",,,,,,,,,,,,,,,,,,,,,,,,,,,====;* @.++,,,,,,,,,,,,,,,,,,,,,,,,,,",
",,,,,,,,,,,,,,,,,,,,,,,,,,=====;*..@+++,,,,,,,,,,,,,,,,,,,,,,,,,",
",,,,,,,,,,,,,,,,,,,,,,,,======-,%.@.+++++,,,,,,,,,,,,,,,,,,,,,,,",
",,,,,,,,,,,,,,,,,,,,,,========,,..@.@.+++++,,,,,,,,,,,,,,,,,,,,,",
",,,,,,,,,,,,,,,,,,,,,=======,,,,.@.@.@+++++++,,,,,,,,,,,,,,,,,,,",
",,,,,,,,,,,,,,,,,,,=======,,,=;,..@.@.@++++++++,,,,,,,,,,,,,,,,,",
",,,,,,,,,,,,,,,,,========,,===;,.@.@.@,,++++++++,,,,,,,,,,,,,,,,",
",,,,,,,,,,,,,,,========,,=====;,.+++++,,,,++++++++,,,,,,,,,,,,,,",
",,,,,,,,,,,,,,=======,,,======;,.+++++,,,,,,++++++++,,,,,,,,,,,,",
",,,,,,,,,,,,========,,========,,.@++++,,,,,,,,++++++++,,,,,,,,,,",
",,,,,,,,,,,=======,,========,,,,+.++++,,,,,,,,,+++++++,,,,,,,,,,",
",,,,,,,,,,======,,,=======,,,,,,@.@.++,,,,,+++,,,+++++,,,,,,,,,,",
",,,,,,,,,,=====,,========,,,,,,,.@.@++,,,,,+++++,,++++,,,,,,,,,,",
",,,,,,,,,,=====,=======,,,=,,,,,@.@.++,,,,,++++++,++++,,,,,,,,,,",
",,,,,,,,,,=====,=====,,,===,,,,,.@.@++,,,,,++++++,++++,,,,,,,,,,",
",,,,,,,,,,=====,====,,,====,,,,,@.@.@.,,,,,++++++,++++,,,,,,,,,,",
",,,,,,,,,,=====,====,,=====,,,,,.@.@.@,,,,,++++++,++++,,,,,,,,,,",
",,,,,,,,,,=====,====,,=====,,,,,@.@.@.,,,,,++++++,++++,,,,,,,,,,",
",,,,,,,,,,=====,====,,=====,,,,,.@.@.@,,,,,++++++,++++,,,,,,,,,,",
",,,,,,,,,,=====,====,,=====,,,,,@.@.@.,,,,,++++++,++++,,,,,,,,,,",
",,,,,,,,,,=====,,,,,,,,,,,,,,,,,.@.@.@,,,,,++++++,++++,,,,,,,,,,",
",,,,,,,,,,=====,,,,,,,,,,,,,,,,,@.@.@.,,,,,++++++,++++,,,,,,,,,,",
",,,,,,,,,,=====,,,,,,,,,,,,,,,,,.@.@.@,,,+,++++++,++++,,,,,,,,,,",
",,,,,,,,,,=====,,,,,,,,,,,,,,,,,++++++,,++,,+++++,++++,,,,,,,,,,",
",,,,,,,,,,=====,,,,,,,,,,,,,,,,,.+++++,,+++++++++,++++,,,,,,,,,,",
",,,,,,,,,,=====,,,,,,,=====,-=-,$+++++,++++++++++,++++,,,,,,,,,,",
",,,,,,,,,,=====,,,,,,,=====,==-,$++++++++++++++++,++++,,,,,,,,,,",
",,,,,,,,,,=====,,,,,,,=====,==-,@@+++++++++++++++,++++,,,,,,,,,,",
",,,,,,,,,,=====,,,,,,,=====,==-,@.+++++++++++++++,++++,,,,,,,,,,",
",,,,,,,,,,=====,,===,,,====,==-,$.+++++++++++++++,++++,,,,,,,,,,",
",,,,,,,,,,=====,======,,,==,---,$++++++++++++++++,++++,,,,,,,,,,",
",,,,,,,,,,=====,========,,,,==-,$.+++++++++++++++,++++,,,,,,,,,,",
",,,,,,,,,,=====,,=========,,==-,#++++++++++++++,,,++++,,,,,,,,,,",
",,,,,,,,,,======,,,===========>,#++++++++,++++,,,+++++,,,,,,,,,,",
",,,,,,,,,,,=======,,,=========-,#+++++++,,,+,,,+++++++,,,,,,,,,,",
",,,,,,,,,,,,========,,=========,#o++++++,,,,,+++++++,,,,,,,,,,,,",
",,,,,,,,,,,,,,========,,=======,$o+++++,,,,++++++++,,,,,,,,,,,,,",
",,,,,,,,,,,,,,,,=======,,,=====,$o++++,,,,+++++++,,,,,,,,,,,,,,,",
",,,,,,,,,,,,,,,,,========,,,===,#o+++,,,+++++++,,,,,,,,,,,,,,,,,",
",,,,,,,,,,,,,,,,,,,========,,==,$o+,,,++++++++,,,,,,,,,,,,,,,,,,",
",,,,,,,,,,,,,,,,,,,,,=======,,,,#o,,++++++++,,,,,,,,,,,,,,,,,,,,",
",,,,,,,,,,,,,,,,,,,,,,,=======,,,,,+++++++,,,,,,,,,,,,,,,,,,,,,,",
",,,,,,,,,,,,,,,,,,,,,,,,=======:,.++++++,,,,,,,,,,,,,,,,,,,,,,,,",
",,,,,,,,,,,,,,,,,,,,,,,,,,=====:*..++++,,,,,,,,,,,,,,,,,,,,,,,,,",
",,,,,,,,,,,,,,,,,,,,,,,,,,,,===:*.+++,,,,,,,,,,,,,,,,,,,,,,,,,,,",
",,,,,,,,,,,,,,,,,,,,,,,,,,,,,,=:&.+,,,,,,,,,,,,,,,,,,,,,,,,,,,,,",
",,,,,,,,,,,,,,,,,,,,,,,,,,,,,,,,&,,,,,,,,,,,,,,,,,,,,,,,,,,,,,,,",
",,,,,,,,,,,,,,,,,,,,,,,,,,,,,,,,,,,,,,,,,,,,,,,,,,,,,,,,,,,,,,,,",
",,,,,,,,,,,,,,,,,,,,,,,,,,,,,,,,,,,,,,,,,,,,,,,,,,,,,,,,,,,,,,,,",
",,,,,,,,,,,,,,,,,,,,,,,,,,,,,,,,,,,,,,,,,,,,,,,,,,,,,,,,,,,,,,,,",
",,,,,,,,,,,,,,,,,,,,,,,,,,,,,,,,,,,,,,,,,,,,,,,,,,,,,,,,,,,,,,,,",
",,,,,,,,,,,,,,,,,,,,,,,,,,,,,,,,,,,,,,,,,,,,,,,,,,,,,,,,,,,,,,,,",
",,,,,,,,,,,,,,,,,,,,,,,,,,,,,,,,,,,,,,,,,,,,,,,,,,,,,,,,,,,,,,,,",
",,,,,,,,,,,,,,,,,,,,,,,,,,,,,,,,,,,,,,,,,,,,,,,,,,,,,,,,,,,,,,,,",
",,,,,,,,,,,,,,,,,,,,,,,,,,,,,,,,,,,,,,,,,,,,,,,,,,,,,,,,,,,,,,,,"
};
