/* XPM */
static char *f51e784ef8054144f9d864596abcc603[] = {
/* columns rows colors chars-per-pixel */
"32 32 23 1 ",
"  c #201C1E",
". c #201D1F",
"X c #211D1F",
"o c #211E1F",
"O c #211E20",
"+ c #211F20",
"@ c #222122",
"# c #222222",
"$ c #232826",
"% c #232827",
"& c #242827",
"* c #26312D",
"= c #27342F",
"- c #27352F",
"; c #336451",
": c #336653",
"> c #356955",
", c #356C57",
"< c #356D58",
"1 c #356E58",
"2 c #366F59",
"3 c #36705A",
"4 c None",
/* pixels */
"44444444444444444444444444444444",
"44444444444444444444444444444444",
"44444444444444444444444444444444",
"44444444444444444444444444444444",
"44444444444444,3= 44444444444444",
"4444444444444,,2* ++444444444444",
"44444444444,,,,4#+++++4444444444",
"444444444,,,,4,:# ++++++44444444",
"4444444,,,,4,,2:# +44++++4444444",
"444444,,,,4,,,24+++4444++++44444",
"44444,,,4,,,,444 ++444+44++44444",
"44444,,4,,,44444+++444++4++44444",
"44444,,,,,4,,244+++444++4++44444",
"44444,,,,,4,,244+++444++4++44444",
"44444,,444444444+++444++4++44444",
"44444,,444444444 ++444++4++44444",
"44444,,444444444+# 4++++4++44444",
"44444,,,444,,422&  #++++4++44444",
"44444,,,444,,,,:& # ++++4++44444",
"44444,,,4,44,,2>&+ #++++4++44444",
"44444,,,,,,,442>&+++++++4++44444",
"44444,,,,4,,>22>& ++44+4+++44444",
"444444,,,,442>2>& ++44++++444444",
"44444444,,,,4>,>&++44+++44444444",
"4444444444,,,,44%44+++4444444444",
"444444444444,,,44 +++44444444444",
"44444444444444,2= +4444444444444",
"4444444444444443=444444444444444",
"44444444444444444444444444444444",
"44444444444444444444444444444444",
"44444444444444444444444444444444",
"44444444444444444444444444444444"
};
