/* XPM */
static char *ddb447cb1545444df1775de8379f4324[] = {
/* columns rows colors chars-per-pixel */
"128 128 20 1 ",
"  c #201B1D",
". c #201D1F",
"X c #211D1F",
"o c #211E1F",
"O c #211E20",
"+ c #211F20",
"@ c #305B4A",
"# c #315B4B",
"$ c #315C4B",
"% c #315C4C",
"& c #315D4C",
"* c #356C57",
"= c #356D58",
"- c #356E58",
"; c #366F59",
": c #366F5A",
"> c #36705A",
", c #36715B",
"< c #37725B",
"1 c None",
/* pixels */
"11111111111111111111111111111111111111111111111111111111111111111111111111111111111111111111111111111111111111111111111111111111",
"11111111111111111111111111111111111111111111111111111111111111111111111111111111111111111111111111111111111111111111111111111111",
"11111111111111111111111111111111111111111111111111111111111111111111111111111111111111111111111111111111111111111111111111111111",
"11111111111111111111111111111111111111111111111111111111111111111111111111111111111111111111111111111111111111111111111111111111",
"11111111111111111111111111111111111111111111111111111111111111111111111111111111111111111111111111111111111111111111111111111111",
"11111111111111111111111111111111111111111111111111111111111111111111111111111111111111111111111111111111111111111111111111111111",
"11111111111111111111111111111111111111111111111111111111111111111111111111111111111111111111111111111111111111111111111111111111",
"11111111111111111111111111111111111111111111111111111111111111111111111111111111111111111111111111111111111111111111111111111111",
"11111111111111111111111111111111111111111111111111111111111111111111111111111111111111111111111111111111111111111111111111111111",
"11111111111111111111111111111111111111111111111111111111111111111111111111111111111111111111111111111111111111111111111111111111",
"11111111111111111111111111111111111111111111111111111111111111111111111111111111111111111111111111111111111111111111111111111111",
"11111111111111111111111111111111111111111111111111111111111111111111111111111111111111111111111111111111111111111111111111111111",
"11111111111111111111111111111111111111111111111111111111111111111111111111111111111111111111111111111111111111111111111111111111",
"1111111111111111111111111111111111111111111111111111111111111111@+11111111111111111111111111111111111111111111111111111111111111",
"111111111111111111111111111111111111111111111111111111111111111;%X+1111111111111111111111111111111111111111111111111111111111111",
"1111111111111111111111111111111111111111111111111111111111111**;$X+++11111111111111111111111111111111111111111111111111111111111",
"11111111111111111111111111111111111111111111111111111111111****;$X+++++111111111111111111111111111111111111111111111111111111111",
"1111111111111111111111111111111111111111111111111111111111*****;$X+++++++1111111111111111111111111111111111111111111111111111111",
"11111111111111111111111111111111111111111111111111111111;******;$X++++++++111111111111111111111111111111111111111111111111111111",
"111111111111111111111111111111111111111111111111111111********;;$X++++++++++1111111111111111111111111111111111111111111111111111",
"1111111111111111111111111111111111111111111111111111***********;@X++++++++++++11111111111111111111111111111111111111111111111111",
"111111111111111111111111111111111111111111111111111************,%X++++++++++++++111111111111111111111111111111111111111111111111",
"1111111111111111111111111111111111111111111111111**************,1X+++++++++++++++11111111111111111111111111111111111111111111111",
"11111111111111111111111111111111111111111111111***************111X+++++++++++++++++111111111111111111111111111111111111111111111",
"111111111111111111111111111111111111111111111****************1111++++++++++++++++++++1111111111111111111111111111111111111111111",
"11111111111111111111111111111111111111111111***************111111++++++++++++++++++++++11111111111111111111111111111111111111111",
"111111111111111111111111111111111111111111***************11111111++++++++++++++++++++++++111111111111111111111111111111111111111",
"1111111111111111111111111111111111111111***************11111**,11+++++++++++++++++++++++++11111111111111111111111111111111111111",
"111111111111111111111111111111111111111***************1111****,11+++++++++++++++++++++++++++111111111111111111111111111111111111",
"1111111111111111111111111111111111111***************11111*****,11++++++++++++1++++++++++++++++1111111111111111111111111111111111",
"11111111111111111111111111111111111***************11111*******,11++++++++++++111++++++++++++++++11111111111111111111111111111111",
"111111111111111111111111111111111****************1111*********,11++++++++++++1111+++++++++++++++++111111111111111111111111111111",
"11111111111111111111111111111111***************11111**********,11++++++++++++111111++++++++++++++++11111111111111111111111111111",
"111111111111111111111111111111***************11111************,11++++++++++++11111111++++++++++++++++111111111111111111111111111",
"1111111111111111111111111111***************11111**************,11++++++++++++1111111111++++++++++++++++1111111111111111111111111",
"111111111111111111111111111***************1111****************111++++++++++++11111111111+++++++++++++++++11111111111111111111111",
"1111111111111111111111111***************11111***************11111++++++++++++1111111111111++++++++++++++++1111111111111111111111",
"11111111111111111111111***************11111****************111111++++++++++++111111111111111++++++++++++++++11111111111111111111",
"1111111111111111111111***************1111****************11111111++++++++++++11111111111111111++++++++++++++11111111111111111111",
"111111111111111111111**************11111***************1111111111++++++++++++1111111111++111111+++++++++++++11111111111111111111",
"111111111111111111111************11111***************111111111111++++++++++++1111111111++++111111+++++++++++11111111111111111111",
"111111111111111111111***********1111****************1111111111111++++++++++++1111111111++++++111111+++++++++11111111111111111111",
"111111111111111111111*********1111****************111111111111111++++++++++++1111111111++++++++11111++++++++11111111111111111111",
"111111111111111111111********1111***************11111111111111111++++++++++++1111111111++++++++++111++++++++11111111111111111111",
"111111111111111111111********111***************111111111111111111++++++++++++1111111111+++++++++++11++++++++11111111111111111111",
"111111111111111111111********111*************111111***11111111111++++++++++++1111111111+++++++++++11++++++++11111111111111111111",
"111111111111111111111********111***********1111111****11111111111++++++++++++1111111111+++++++++++11++++++++11111111111111111111",
"111111111111111111111********111*********1111111******11111111111++++++++++++1111111111+++++++++++11++++++++11111111111111111111",
"111111111111111111111********111********111111********11111111111++++++++++++1111111111+++++++++++11++++++++11111111111111111111",
"111111111111111111111********111********1111**********11111111111++++++++++++1111111111+++++++++++11++++++++11111111111111111111",
"111111111111111111111********111********111***********11111111111++++++++++++1111111111+++++++++++11++++++++11111111111111111111",
"111111111111111111111********111********111***********11111111111++++++++++++1111111111+++++++++++11++++++++11111111111111111111",
"111111111111111111111********111********111***********11111111111++++++++++++1111111111+++++++++++11++++++++11111111111111111111",
"111111111111111111111********111********111***********11111111111++++++++++++1111111111+++++++++++11++++++++11111111111111111111",
"111111111111111111111********111********111***********11111111111++++++++++++1111111111+++++++++++11++++++++11111111111111111111",
"111111111111111111111********111********111***********11111111111++++++++++++1111111111+++++++++++11++++++++11111111111111111111",
"111111111111111111111*********11********111***********11111111111++++++++++++1111111111+++++++++++11++++++++11111111111111111111",
"111111111111111111111*********11111111111111*********111111111111++++++++++++1111111111+++++++++++11++++++++11111111111111111111",
"111111111111111111111*********11111111111111111111111111111111111++++++++++++1111111111+++++++++++11++++++++11111111111111111111",
"111111111111111111111*********11111111111111111111111111111111111++++++++++++1111111111+++++++++++11++++++++11111111111111111111",
"111111111111111111111*********11111111111111111111111111111111111++++++++++++1111111111+++++++++++11++++++++11111111111111111111",
"111111111111111111111*********11111111111111111111111111111111111++++++++++++1111111111+++++++++++11++++++++11111111111111111111",
"111111111111111111111*********11111111111111111111111111111111111++++++++++++11111+1111+++++++++++11++++++++11111111111111111111",
"111111111111111111111*********11111111111111111111111111111111111++++++++++++11111++111+++++++++++11++++++++11111111111111111111",
"111111111111111111111*********11111111111111111111111111111111111++++++++++++1111++++11+++++++++++11++++++++11111111111111111111",
"111111111111111111111*********11111111111111111111111111111111111++++++++++++111+++++11+++++++++++11++++++++11111111111111111111",
"111111111111111111111*********11111111111111111111111111111111111++++++++++++111++++++1+++++++++++11++++++++11111111111111111111",
"111111111111111111111*********11111111111111111111111111111111111X+++++++++++11+++++++++++++++++++11++++++++11111111111111111111",
"111111111111111111111*********11111111111111111111111111*******11X+++++++++++1++++++++++++++++++++11++++++++11111111111111111111",
"111111111111111111111*********1111111111111***********11******-11X+++++++++++1++++++++++++++++++++11++++++++11111111111111111111",
"111111111111111111111*********1111111111111***********11******,11+++++++++++++++++++++++++++++++++11++++++++11111111111111111111",
"111111111111111111111*********1111111111111***********11*******11X++++++++++++++++++++++++++++++++11++++++++11111111111111111111",
"111111111111111111111*********1111111111111***********11*******11+++++++++++++++++++++++++++++++++11++++++++11111111111111111111",
"111111111111111111111*********1111111111111***********11******,11X++++++++++++++++++++++++++++++++11++++++++11111111111111111111",
"111111111111111111111*********1111111111111***********11*******11X++++++++++++++++++++++++++++++++11++++++++11111111111111111111",
"111111111111111111111*********111111*111111***********11******-11+++++++++++++++++++++++++++++++++11++++++++11111111111111111111",
"111111111111111111111*********11111****11111**********11******,11+++++++++++++++++++++++++++++++++11++++++++11111111111111111111",
"111111111111111111111*********1111*******11111********11*******11X++++++++++++++++++++++++++++++++11++++++++11111111111111111111",
"111111111111111111111*********111**********11111******11*******11+++++++++++++++++++++++++++++++++11++++++++11111111111111111111",
"111111111111111111111*********111************11111****11******,11X++++++++++++++++++++++++++++++++11++++++++11111111111111111111",
"111111111111111111111*********11***************11111**11*******11X++++++++++++++++++++++++++++++++11++++++++11111111111111111111",
"111111111111111111111*********11****************11111111******-11++++++++++++++++++++++++++++++++111++++++++11111111111111111111",
"111111111111111111111*********111*****************111111******,11+++++++++++++++++++++++++++++++1111++++++++11111111111111111111",
"111111111111111111111*********11111*****************1111*******11X++++++++++++++++11++++++++++111111++++++++11111111111111111111",
"111111111111111111111***********11111*****************11*******11+++++++++++++++++111+++++++111111++++++++++11111111111111111111",
"111111111111111111111*************1111************************;11X+++++++++++++++1111+++++111111++++++++++++11111111111111111111",
"111111111111111111111**************11111**********************,11X+++++++++++++++11111+++111111+++++++++++++11111111111111111111",
"1111111111111111111111***************11111*********************11+++++++++++++++1111111111111++++++++++++++111111111111111111111",
"11111111111111111111111****************11111******************;11++++++++++++++111111111111+++++++++++++++1111111111111111111111",
"1111111111111111111111111****************11111*****************11X+++++++++++++1111111111+++++++++++++++111111111111111111111111",
"111111111111111111111111111***************11111****************11+++++++++++++1111111111++++++++++++++11111111111111111111111111",
"1111111111111111111111111111****************11111*************,11X++++++++++++11111111+++++++++++++++111111111111111111111111111",
"111111111111111111111111111111****************11111***********;11X+++++++++++1111111+++++++++++++++11111111111111111111111111111",
"11111111111111111111111111111111***************11111***********11++++++++++++11111+++++++++++++++1111111111111111111111111111111",
"1111111111111111111111111111111111***************11111********;11++++++++++111111++++++++++++++111111111111111111111111111111111",
"111111111111111111111111111111111111***************11111*******11X+++++++111111+++++++++++++++1111111111111111111111111111111111",
"1111111111111111111111111111111111111;***************11111*****11++++++111111+++++++++++++++111111111111111111111111111111111111",
"111111111111111111111111111111111111111***************11111***;11X++++11111+++++++++++++++11111111111111111111111111111111111111",
"11111111111111111111111111111111111111111***************11111*;11X++111111++++++++++++++1111111111111111111111111111111111111111",
"1111111111111111111111111111111111111111111**************;1111111+111111+++++++++++++++11111111111111111111111111111111111111111",
"11111111111111111111111111111111111111111111****************1111111111+++++++++++++++1111111111111111111111111111111111111111111",
"1111111111111111111111111111111111111111111111**************;1111111+++++++++++++++111111111111111111111111111111111111111111111",
"111111111111111111111111111111111111111111111111***************1111++++++++++++++11111111111111111111111111111111111111111111111",
"11111111111111111111111111111111111111111111111111*************:$X++++++++++++++111111111111111111111111111111111111111111111111",
"1111111111111111111111111111111111111111111111111111***********:$X++++++++++++11111111111111111111111111111111111111111111111111",
"11111111111111111111111111111111111111111111111111111**********:$X++++++++++1111111111111111111111111111111111111111111111111111",
"1111111111111111111111111111111111111111111111111111111********;$X++++++++111111111111111111111111111111111111111111111111111111",
"111111111111111111111111111111111111111111111111111111111******;$X+++++++1111111111111111111111111111111111111111111111111111111",
"11111111111111111111111111111111111111111111111111111111111****;@X+++++111111111111111111111111111111111111111111111111111111111",
"1111111111111111111111111111111111111111111111111111111111111*;;#X+++11111111111111111111111111111111111111111111111111111111111",
"11111111111111111111111111111111111111111111111111111111111111*;%X+1111111111111111111111111111111111111111111111111111111111111",
"1111111111111111111111111111111111111111111111111111111111111111@X11111111111111111111111111111111111111111111111111111111111111",
"11111111111111111111111111111111111111111111111111111111111111111111111111111111111111111111111111111111111111111111111111111111",
"11111111111111111111111111111111111111111111111111111111111111111111111111111111111111111111111111111111111111111111111111111111",
"11111111111111111111111111111111111111111111111111111111111111111111111111111111111111111111111111111111111111111111111111111111",
"11111111111111111111111111111111111111111111111111111111111111111111111111111111111111111111111111111111111111111111111111111111",
"11111111111111111111111111111111111111111111111111111111111111111111111111111111111111111111111111111111111111111111111111111111",
"11111111111111111111111111111111111111111111111111111111111111111111111111111111111111111111111111111111111111111111111111111111",
"11111111111111111111111111111111111111111111111111111111111111111111111111111111111111111111111111111111111111111111111111111111",
"11111111111111111111111111111111111111111111111111111111111111111111111111111111111111111111111111111111111111111111111111111111",
"11111111111111111111111111111111111111111111111111111111111111111111111111111111111111111111111111111111111111111111111111111111",
"11111111111111111111111111111111111111111111111111111111111111111111111111111111111111111111111111111111111111111111111111111111",
"11111111111111111111111111111111111111111111111111111111111111111111111111111111111111111111111111111111111111111111111111111111",
"11111111111111111111111111111111111111111111111111111111111111111111111111111111111111111111111111111111111111111111111111111111",
"11111111111111111111111111111111111111111111111111111111111111111111111111111111111111111111111111111111111111111111111111111111",
"11111111111111111111111111111111111111111111111111111111111111111111111111111111111111111111111111111111111111111111111111111111",
"11111111111111111111111111111111111111111111111111111111111111111111111111111111111111111111111111111111111111111111111111111111",
"11111111111111111111111111111111111111111111111111111111111111111111111111111111111111111111111111111111111111111111111111111111"
};
